# xmcd
#
# Track frame offsets: 
#        150
#        18838
#        32949
#        45598
#        63151
#        82719
#        99438
#        111645
#        123961
#        136355
#        152750
#        162992
#        177431
#
# Disc length: 2588 seconds
#
# Revision: 0
# Processed by: cddbd v1.5.2PL0 Copyright (c) Steve Scherf et al.
# Submitted via: ExactAudioCopy v0.99pb4
#
DISCID=a10a1a0d
DTITLE=Whip - Blues for losers
DYEAR=2008
DGENRE=Blues
TTITLE0=Down by blood
TTITLE1=Gainin' ground
TTITLE2=No reply
TTITLE3=Kind favor
TTITLE4=Warbler
TTITLE5=Newsflash
TTITLE6=Spare angel
TTITLE7=Spread eagle
TTITLE8=Who sings
TTITLE9=Wicked wheels
TTITLE10=Off the rails
TTITLE11=White wedding
TTITLE12=Wrecking crew
EXTD=
EXTT0=
EXTT1=
EXTT2=
EXTT3=
EXTT4=
EXTT5=
EXTT6=
EXTT7=
EXTT8=
EXTT9=
EXTT10=
EXTT11=
EXTT12=
PLAYORDER=
